<svg xmlns="http://www.w3.org/2000/svg" width="128" height="128" xml:space="preserve"><path fill="#282D33" d="M66.037 113.203c-23.072 0-41.843-19.103-41.843-42.583s18.771-42.583 41.843-42.583S107.88 47.14 107.88 70.62s-18.771 42.583-41.843 42.583zm0-81.142c-20.854 0-37.819 17.298-37.819 38.56s16.966 38.56 37.819 38.56 37.819-17.298 37.819-38.56-16.965-38.56-37.819-38.56z"/><path fill="#282D33" d="M66.037 100.899c-16.411 0-29.763-13.583-29.763-30.279s13.352-30.279 29.763-30.279S95.801 53.924 95.801 70.62s-13.353 30.279-29.764 30.279zm0-56.535c-14.192 0-25.738 11.778-25.738 26.256 0 14.477 11.546 26.256 25.738 26.256 14.193 0 25.74-11.779 25.74-26.256S80.23 44.364 66.037 44.364z"/><path fill="#282D33" d="M49.959 70.62h-4.023c0-11.271 9.018-20.439 20.102-20.439v4.023c-8.866 0-16.079 7.364-16.079 16.416zM11.937 113.388c-3.66 0-6.639-3.017-6.639-6.725V54.016C2.001 51.917 0 48.291 0 44.273V18.4h4.023v25.873c0 2.909 1.599 5.499 4.172 6.761l1.127.553v55.076c0 1.489 1.173 2.701 2.614 2.701 1.442 0 2.615-1.212 2.615-2.701V51.109l.871-.6c2.036-1.399 3.251-3.73 3.251-6.235V18.4h4.023v25.874a11.59 11.59 0 0 1-4.122 8.888v53.501c.001 3.708-2.977 6.725-6.637 6.725z"/><path fill="#282D33" d="M9.336 18.4h4.023v18.593H9.336z"/><g><path fill="#282D33" d="M121.359 113.388c-3.66 0-6.639-2.902-6.639-6.472V75.919c-1.265-6.061-1.933-12.983-1.933-20.038 0-19.72 5.051-36.075 12.284-39.771L128 14.612v92.304c0 3.569-2.979 6.472-6.641 6.472zm2.617-90.863c-3.865 5.545-7.164 17.78-7.164 33.355 0 6.86.653 13.572 1.89 19.412l.044.417v31.206c0 1.35 1.173 2.448 2.614 2.448 1.442 0 2.616-1.099 2.616-2.448v-84.39z"/><path fill="#282D33" d="M117.154 71.863h10.599v4.024h-10.599z"/></g></svg>